<?xml version="1.0" standalone="no"?>
<!DOCTYPE svg PUBLIC "-//W3C//DTD SVG 20010904//EN"
 "http://www.w3.org/TR/2001/REC-SVG-20010904/DTD/svg10.dtd">
<svg version="1.0" xmlns="http://www.w3.org/2000/svg"
 width="1042.000000pt" height="1042.000000pt" viewBox="0 0 1042.000000 1042.000000"
 preserveAspectRatio="xMidYMid meet">
<metadata>
Created by potrace 1.11, written by Peter Selinger 2001-2013
</metadata>
<g transform="translate(0.000000,1042.000000) scale(0.100000,-0.100000)"
fill="#000000" stroke="none">
<path d="M5047 9704 c-1 -1 -54 -5 -117 -8 -126 -7 -286 -24 -395 -42 -16 -3
-43 -7 -60 -10 -309 -49 -664 -150 -975 -276 -109 -44 -363 -167 -471 -228
-123 -69 -303 -182 -307 -192 -2 -4 -8 -8 -13 -8 -18 0 -315 -222 -395 -295
-6 -5 -36 -30 -65 -55 -85 -71 -357 -345 -450 -454 -405 -477 -700 -1011 -884
-1602 -40 -127 -103 -377 -119 -471 -29 -165 -39 -230 -51 -343 -4 -30 -8 -66
-10 -80 -22 -148 -22 -730 -1 -848 2 -9 7 -46 10 -82 63 -618 289 -1279 627
-1833 70 -114 211 -322 254 -375 8 -9 44 -55 82 -102 37 -47 72 -90 78 -96 5
-6 39 -44 75 -85 234 -265 554 -543 860 -746 36 -23 70 -47 77 -53 7 -5 15
-10 17 -10 3 0 36 -19 73 -43 61 -39 100 -61 278 -157 168 -91 510 -228 745
-299 129 -39 392 -104 474 -117 21 -3 48 -8 60 -10 11 -2 55 -9 96 -15 41 -5
86 -12 100 -15 14 -2 54 -7 90 -10 36 -3 101 -9 145 -14 79 -8 643 -5 720 4
22 3 60 7 85 10 186 18 445 65 670 121 123 30 393 121 545 182 120 49 440 204
520 252 28 17 57 34 65 38 35 16 233 145 335 218 391 278 740 626 1041 1035
43 59 152 221 170 255 6 11 35 58 63 105 73 119 231 441 290 590 101 255 175
500 227 750 33 162 31 147 39 210 4 30 9 64 11 75 2 11 7 47 10 80 4 33 8 62
9 65 10 17 20 271 20 490 0 229 -6 365 -21 500 -16 153 -60 405 -91 525 -8 33
-17 69 -19 80 -2 11 -20 74 -39 140 -20 66 -37 127 -39 135 -30 116 -159 427
-265 640 -275 553 -711 1093 -1191 1475 -41 33 -77 62 -80 65 -3 3 -41 32 -85
63 -44 31 -84 60 -90 65 -5 4 -48 33 -95 64 -532 354 -1169 598 -1815 694 -16
2 -41 6 -55 9 -14 2 -52 7 -85 10 -33 3 -76 8 -95 10 -101 12 -573 27 -583 19z
m382 -508 c70 -4 139 -9 152 -11 13 -2 55 -6 93 -10 38 -3 71 -7 75 -9 3 -2
35 -7 71 -11 36 -4 68 -9 71 -11 3 -1 32 -8 65 -13 98 -17 114 -20 254 -57
876 -228 1645 -746 2197 -1479 178 -237 380 -591 487 -855 10 -25 25 -59 32
-75 49 -114 144 -428 179 -595 9 -41 18 -84 21 -95 24 -110 50 -300 62 -450
14 -184 7 -612 -13 -765 -3 -19 -7 -55 -10 -80 -3 -25 -8 -52 -10 -60 -2 -8
-6 -37 -10 -65 -3 -27 -15 -88 -25 -135 -10 -47 -21 -96 -24 -110 -13 -72 -84
-312 -128 -435 -144 -402 -350 -775 -615 -1115 -124 -159 -143 -181 -343 -380
-178 -178 -213 -209 -387 -342 -281 -214 -602 -399 -913 -523 -52 -20 -108
-43 -125 -50 -100 -42 -490 -151 -605 -170 -19 -3 -57 -10 -85 -15 -27 -5 -68
-12 -90 -15 -22 -2 -74 -10 -115 -15 -130 -19 -258 -25 -500 -24 -241 0 -314
4 -510 30 -439 57 -913 208 -1305 413 -554 290 -1033 702 -1391 1196 -282 389
-486 806 -614 1255 -35 125 -70 275 -85 360 -3 19 -8 42 -10 50 -3 8 -7 35 -9
60 -3 25 -7 54 -9 65 -3 11 -8 52 -11 90 -4 39 -9 81 -11 95 -31 208 -18 685
25 950 5 30 12 75 15 100 31 224 149 620 263 886 106 246 264 532 396 714 67
93 150 204 172 230 343 408 691 705 1109 947 135 78 448 233 470 233 3 0 25 8
48 19 94 42 419 147 515 166 9 1 44 10 77 18 59 16 88 22 154 33 18 3 43 8 55
10 11 2 41 6 66 9 25 3 54 8 65 10 11 2 45 6 75 10 30 3 71 7 90 10 19 2 103
7 185 11 83 3 151 7 152 8 3 2 136 -2 262 -8z"/>
<path d="M1804 7040 c-3 -19 -14 -82 -25 -140 -10 -58 -21 -118 -24 -135 -3
-16 -18 -106 -35 -200 -16 -93 -39 -224 -50 -290 -12 -66 -23 -131 -26 -145
-2 -14 -7 -43 -10 -65 -3 -22 -9 -55 -14 -72 -5 -18 -5 -34 -2 -36 4 -2 772
-3 1706 -3 l1700 1 7 27 c4 15 10 45 12 65 7 49 44 256 62 353 8 41 17 91 20
110 3 19 7 46 10 60 3 14 7 39 10 55 3 17 14 80 25 140 11 61 22 124 25 140 2
17 7 41 10 55 3 14 8 45 11 70 l6 45 -1706 0 -1706 0 -6 -35z"/>
<path d="M5578 7072 c-52 -3 -49 0 -63 -87 -12 -68 -15 -86 -40 -225 -13 -74
-27 -148 -30 -165 -3 -16 -23 -133 -46 -260 -22 -126 -42 -241 -44 -255 -2
-14 -8 -46 -13 -72 -5 -27 -9 -49 -8 -49 0 -1 441 -2 979 -3 646 -1 981 2 985
9 4 5 7 15 8 20 1 6 4 24 7 40 3 17 10 59 16 95 6 36 13 76 16 90 5 29 52 297
61 350 10 60 14 82 34 190 11 58 22 123 25 145 12 72 16 100 25 138 7 34 6 37
-14 37 -140 3 -1863 4 -1898 2z"/>
<path d="M7843 7072 c-14 -2 -23 -12 -27 -30 -5 -24 -28 -152 -41 -227 -2 -16
-9 -55 -15 -85 -17 -97 -22 -124 -25 -150 -3 -20 -30 -173 -60 -340 -3 -14 -9
-52 -15 -85 -5 -33 -12 -71 -15 -85 -3 -14 -8 -45 -11 -70 l-5 -45 555 0 c305
0 557 2 559 5 3 3 8 23 11 45 4 23 9 52 11 65 3 14 10 54 16 90 5 36 12 79 15
95 17 91 3 239 -32 342 -75 226 -289 420 -504 457 -90 15 -355 27 -417 18z"/>
<path d="M2700 5611 c-10 -36 -15 -67 -24 -126 -3 -16 -9 -55 -15 -85 -6 -30
-13 -71 -16 -90 -3 -19 -13 -73 -21 -120 -9 -47 -18 -94 -20 -105 -2 -11 -26
-150 -53 -310 -28 -159 -53 -303 -56 -320 -3 -16 -7 -41 -10 -55 -6 -30 -63
-360 -71 -409 -3 -18 -8 -43 -10 -55 -2 -11 -13 -75 -24 -141 -11 -66 -27
-154 -35 -195 -8 -41 -17 -91 -20 -110 -15 -92 -17 -106 -22 -122 -4 -17 27
-18 556 -18 524 0 560 1 565 18 2 9 8 37 11 62 4 25 9 52 10 61 2 9 6 34 9 55
4 22 15 86 26 144 11 58 22 123 25 145 4 22 8 47 10 55 2 8 7 30 10 48 8 52
13 80 40 235 15 82 28 161 30 175 2 15 6 38 9 52 6 25 21 111 30 165 3 17 12
71 21 120 9 50 20 115 26 145 5 30 11 65 13 76 2 12 7 39 10 60 4 22 8 46 11
54 2 8 6 33 10 55 3 22 12 76 20 120 14 77 17 97 30 175 3 19 12 72 20 117 9
45 18 100 21 122 l6 40 -556 0 -556 -1 -10 -37z"/>
<path d="M5283 5642 c-8 -6 -35 -144 -69 -357 -1 -11 -12 -72 -23 -135 -27
-154 -29 -168 -52 -297 -10 -62 -28 -166 -40 -230 -11 -65 -22 -127 -23 -138
-2 -11 -6 -33 -9 -50 -4 -16 -9 -48 -12 -70 -3 -23 -8 -52 -10 -65 -6 -29 -34
-192 -41 -235 -2 -16 -11 -66 -19 -110 -23 -128 -27 -149 -30 -170 -1 -11 -10
-63 -20 -115 -9 -52 -18 -107 -20 -122 -2 -15 -8 -53 -14 -85 -6 -32 -12 -70
-15 -86 l-5 -27 557 2 557 3 17 95 c9 52 19 115 23 139 3 24 13 80 21 124 8
44 17 92 19 106 2 14 13 76 24 136 11 61 22 124 24 140 6 37 36 202 42 235 4
22 11 56 21 115 20 108 44 248 48 280 4 22 8 51 11 65 13 61 16 77 21 110 2
19 7 46 10 60 2 14 7 39 9 55 3 17 12 66 20 110 8 44 16 91 19 105 2 14 9 52
15 85 6 33 13 78 16 100 4 22 8 47 11 56 2 9 7 33 9 53 3 20 9 54 14 76 5 22
6 42 2 44 -11 7 -1097 5 -1108 -2z"/>
<path d="M7569 5636 c0 -6 -2 -18 -4 -26 -2 -8 -6 -33 -10 -55 -3 -22 -12 -74
-20 -115 -8 -41 -23 -127 -34 -190 -11 -63 -27 -153 -35 -200 -16 -88 -72
-412 -81 -465 -3 -16 -7 -39 -10 -50 -2 -11 -7 -42 -11 -70 -3 -27 -8 -52 -9
-55 -3 -5 -22 -111 -40 -220 -2 -14 -11 -65 -20 -115 -9 -49 -27 -155 -41
-235 -31 -177 -33 -190 -38 -216 -2 -12 -7 -37 -10 -55 -3 -19 -8 -47 -11 -64
-19 -103 -25 -140 -25 -147 0 -4 251 -8 559 -8 l559 0 8 48 c4 26 8 49 9 52 1
3 5 25 9 50 5 25 10 54 12 65 2 10 6 37 10 59 3 22 7 43 9 46 1 3 6 25 9 50 3
25 8 56 11 70 6 31 25 135 31 175 2 17 13 77 24 135 10 58 22 125 26 150 3 25
8 54 10 65 3 11 7 35 10 54 3 18 8 43 10 55 2 11 13 73 24 136 11 63 22 129
25 145 24 134 35 194 39 215 14 87 17 101 61 345 7 39 26 154 30 180 2 11 11
58 19 105 9 47 16 88 16 92 0 12 -1120 7 -1121 -6z"/>
</g>
</svg>
